<svg width="57" height="40" viewBox="0 0 57 40" fill="none" xmlns="http://www.w3.org/2000/svg">
<path d="M29.5166 37.0137C24.8547 37.0137 20.6166 35.1296 17.5353 32.0854C16.3042 32.2518 15.1106 32.3766 13.9625 32.4639C17.6266 37.0094 23.237 39.9248 29.5168 39.9248C40.2257 39.9248 48.9886 31.4532 49.4584 20.8608C48.4975 21.4928 47.4538 22.1208 46.3434 22.7364C45.0123 30.8253 37.9756 37.0137 29.5166 37.0137Z" fill="white"/>
<path d="M42.1135 24.8656C38.749 26.4168 34.9769 27.8433 31.0053 29.0577C27.9983 29.9767 25.0164 30.7337 22.1593 31.3035C24.2765 32.6801 26.8006 33.4785 29.5165 33.4785C35.2514 33.4785 40.1507 29.9062 42.1135 24.8656Z" fill="white"/>
<path d="M56.1954 10.0602C55.3384 7.2572 51.5623 5.81801 45.2992 5.88059C45.1786 5.88059 45.058 5.88458 44.9332 5.88458C45.765 6.79135 46.5175 7.77694 47.1747 8.82069C51.3253 9.012 53.1384 10.0184 53.413 10.9125C53.6941 11.8274 52.6884 13.7518 49.1437 16.3277C47.4018 6.89826 39.0177 -0.226698 29.043 0.00551707C18.7597 0.244859 10.2529 8.39319 9.59584 18.6582C9.37061 22.1758 10.064 25.5152 11.4593 28.4613C11.3208 28.4643 11.1794 28.4698 11.043 28.4713C5.57849 28.5378 3.27003 27.3649 2.95812 26.3503C2.55485 25.0277 4.55954 22.6323 8.62251 19.9831V19.9624C8.62251 18.7272 8.73056 17.5211 8.93854 16.3442C2.91265 19.8542 -0.880188 23.7594 0.17611 27.203C1.01188 29.9435 4.63423 31.3866 10.652 31.3866C10.7893 31.3866 10.9305 31.3826 11.0724 31.3826C16.6867 31.3203 23.7691 30.0683 31.0055 27.8516C38.2461 25.6392 44.8169 22.7157 49.5038 19.6213C54.7399 16.1695 57.052 12.8631 56.1954 10.0602ZM12.4889 19.0537C12.9521 10.1742 20.3041 3.07919 29.1941 2.91412C38.1089 2.74862 45.5166 9.46573 46.4595 18.0953C45.3955 18.7362 44.2506 19.3671 43.0322 19.9831C43.0322 19.9763 43.0326 19.9693 43.0326 19.9624C43.0326 18.0477 42.6356 16.2282 41.9189 14.579C41.4951 13.604 40.1197 13.5287 39.6051 14.4591C38.5476 16.3713 36.4446 17.6252 34.0682 17.451C31.2284 17.2429 28.9208 14.9452 28.7024 12.1062C28.5753 10.453 29.1381 8.93202 30.1332 7.80103C30.5978 7.27302 30.2409 6.4468 29.5377 6.44637H29.5164C22.0512 6.44637 16.0002 12.4974 16.0002 19.9626C16.0002 22.8834 16.9299 25.5831 18.5077 27.7956C17.1718 28.0041 15.8783 28.1652 14.6356 28.2781C13.1161 25.5715 12.3137 22.4123 12.4889 19.0537ZM27.1799 20.2176C27.0315 18.8011 28.135 17.6084 29.5164 17.6084C30.814 17.6084 31.8664 18.6607 31.8664 19.9623C31.8664 21.3519 30.6597 22.4598 29.2373 22.2958C28.1625 22.1721 27.2926 21.2936 27.1799 20.2176Z" fill="url(#paint0_linear_10_64)"/>
<defs>
<linearGradient id="paint0_linear_10_64" x1="28.1849" y1="0" x2="28.1849" y2="31.3866" gradientUnits="userSpaceOnUse">
<stop stop-color="#FF1B30"/>
<stop offset="1" stop-color="#FF9313"/>
</linearGradient>
</defs>
</svg>
