<svg width="508" height="435" viewBox="0 0 508 435" fill="none" xmlns="http://www.w3.org/2000/svg">
<path opacity="0.6" d="M299.732 590.532C323.632 569.464 344.329 544.689 370.188 526.07L421.842 439.902C417.243 424.841 406.049 411.914 391.788 405.194C377.526 398.474 360.421 398.065 345.858 404.096C331.076 410.219 316.322 422.849 301.219 417.556C289.354 413.398 281.322 401.005 268.87 398.431C257.324 396.044 250.21 406.453 239.208 406.335C233.225 406.27 228.09 402.154 223.977 397.814C215.552 388.926 207.705 381.021 194.588 384.022C190.08 385.054 185.532 386.569 180.94 386.019C168.107 384.481 172.58 367.036 161.873 362.482C147.786 356.492 135.979 381.052 122.326 370.615C117.707 367.083 116.365 359.939 119.387 354.977C121.766 351.073 126.498 348.201 126.627 343.632C126.801 337.504 118.437 333.674 118.637 327.547C118.744 324.25 121.368 321.619 124.01 319.64C126.651 317.66 129.625 315.803 131.038 312.823C134.911 304.656 124.701 294.471 129.128 286.589C129.955 285.118 131.228 283.929 132.017 282.436C132.637 281.263 132.795 280.016 132.462 279.09C131.626 278.569 130.373 278.458 129.093 278.814C127.464 279.267 126.031 280.257 124.415 280.752C115.763 283.4 107.96 271.276 99.1451 273.321C95.9275 274.068 93.4793 276.576 90.9817 278.733C88.4832 280.89 85.3527 282.893 82.1033 282.298C76.0647 281.192 74.0899 272.219 68.0557 271.089C63.5568 270.246 59.7409 274.253 55.4155 275.746C49.9184 277.643 43.211 274.817 40.7349 269.56C33.2203 253.609 63.4338 245.783 56.3922 230.132C53.099 222.81 41.8678 221.83 38.6623 214.47C35.181 206.476 43.5927 198.48 45.2284 189.918C46.6297 182.587 42.8855 175.317 38.8741 169.017C34.8627 162.717 30.3042 156.258 29.8259 148.808C29.1477 138.251 37.4424 138.598 41.5827 131.926C45.624 125.414 44.9594 114.738 42.4301 107.885C39.5529 100.091 33.7793 93.2876 32.7528 85.0454C30.7771 69.1852 46.2693 57.4692 55.3977 44.345C64.391 31.4151 67.6211 14.6376 64.0696 -0.703873C60.518 -16.0445 50.2419 -29.7094 36.4774 -37.3935L-58.8167 -5.27534C-82.527 16.0056 -111.166 30.9435 -136.857 49.7935C-162.547 68.6434 -186.316 93.2308 -193.361 124.281C-200.654 156.416 -188.803 189.89 -172.803 218.714C-140.706 276.537 -90.8393 324.368 -31.6895 354.068C-14.5591 362.67 4.58003 369.931 23.4164 366.374C23.6926 366.322 23.9654 366.261 24.2395 366.204C24.1258 366.46 24.0083 366.713 23.8986 366.971C16.4201 384.596 19.4656 404.811 24.2494 423.352C40.7665 487.368 76.998 546.175 126.779 589.763C151.596 611.492 181.842 630.158 214.841 629.861C246.725 629.574 275.832 611.6 299.732 590.532Z" fill="url(#paint0_linear_24_290)"/>
<path d="M445.861 517.454C452.512 508.798 456.361 497.939 455.452 487.109C454.355 474.028 445.688 461.464 433.25 457.21C412.072 449.966 389.899 467.086 367.555 465.739C357.642 465.141 348.349 460.924 339.391 456.636C330.434 452.349 321.331 447.857 311.473 446.643C296.819 444.838 285.829 454.082 273.508 460.314C258.585 467.864 240.466 474.3 225.696 466.447C212.632 459.501 207.217 444.044 201.528 430.4C195.839 416.756 186.497 401.998 171.772 400.511C159.666 399.287 146.728 407.632 135.913 402.063C130.166 399.104 126.907 392.988 122.498 388.265C116.937 382.306 103.371 386.155 95.5639 382.613C87.2656 378.846 80.2917 368.132 85.1635 359.249C87.5809 354.84 91.7128 351.691 95.3586 348.226C99.0045 344.762 102.417 340.466 102.619 335.444C102.813 330.609 99.5168 324.097 103.707 320.113C105.811 318.115 108.747 317.326 111.485 316.36C114.224 315.395 117.081 313.996 118.361 311.393C120.363 307.32 117.684 302.05 119.802 298.035C121.345 295.11 124.864 293.92 127.334 291.719C129.214 290.043 131.943 283.352 130.658 280.562C128.2 278.717 121.072 279.959 119.033 281.438C116.355 283.381 114.443 286.562 111.254 287.447C106.875 288.661 102.285 284.929 97.8736 286.019C95.0549 286.715 93.0795 289.207 91.5534 291.674C90.0272 294.14 88.6323 296.838 86.2299 298.467C81.4419 301.71 75.7678 297.113 70.996 296.276C66.0373 295.407 61.109 297.825 56.9449 300.648C52.7807 303.47 48.8205 306.833 43.9939 308.257C34.2659 311.125 25.26 302.047 23.3342 293.15C21.5233 284.781 28.1693 272.36 23.517 265.67C19.8298 260.366 14.5364 255.888 12.8592 249.652C9.70333 237.918 20.616 227.064 21.9874 214.993C23.6554 200.31 11.1947 188.063 -0.951623 179.617C-13.098 171.171 -27.0762 162.608 -31.1028 148.385C-35.655 132.308 -25.5108 115.993 -14.9559 103.034C-4.401 90.0749 7.72477 76.2846 7.90521 59.5795C7.90714 59.4263 7.89961 59.2738 7.89977 59.1213L-117.616 45.6514L-161.256 452.3L-139.49 454.636L445.861 517.453L445.861 517.454Z" fill="url(#paint1_linear_24_290)"/>
<path d="M145.244 257.968L162.279 237.605C162.279 237.605 136.598 229.7 107.72 245.936C103.866 248.102 100.415 250.494 97.3119 253.006C113.288 254.671 129.272 256.268 145.244 257.968Z" fill="url(#paint2_linear_24_290)"/>
<path d="M155.847 271.1L179.391 258.799C179.391 258.799 181.679 285.534 159.661 310.266C156.723 313.567 153.65 316.427 150.533 318.922C152.294 302.981 154.122 287.046 155.847 271.1Z" fill="url(#paint3_linear_24_290)"/>
<path d="M250.083 184.412C235.668 222.834 216.662 240.646 178.984 268.346C161.679 281.069 140.055 283.348 140.055 283.348L134.98 277.063L129.905 270.778C129.905 270.778 136.725 250.162 152.848 235.976C187.954 205.09 209.421 190.325 250.083 184.412Z" fill="url(#paint4_linear_24_290)"/>
<path opacity="0.2" d="M177.734 275.463C177.689 275.663 177.638 275.869 177.59 276.072L167.849 283.913L165.87 302.355C165.717 302.578 165.57 302.801 165.412 303.023L167.476 283.792C167.481 283.742 167.507 283.695 167.546 283.663L177.734 275.463ZM139.021 236.032L138.46 241.263L133.326 240.712L133.754 236.717C133.622 236.739 133.493 236.757 133.361 236.779L132.034 249.149L124.135 248.301L125.171 238.646C125.038 238.684 124.905 238.724 124.772 238.762L123.753 248.26L106.857 246.447C106.671 246.555 106.488 246.664 106.304 246.773L132.184 249.551C132.29 249.562 132.385 249.485 132.396 249.38L133.286 241.093L138.612 241.664C138.717 241.676 138.812 241.599 138.824 241.494L139.414 235.993C139.284 236.005 139.152 236.02 139.021 236.032Z" fill="#FF5A09"/>
<path d="M250.083 184.412C235.668 222.834 216.662 240.646 178.984 268.346C161.679 281.069 140.055 283.348 140.055 283.348L134.98 277.063L129.905 270.778C129.905 270.778 136.725 250.162 152.848 235.976C187.954 205.09 209.421 190.325 250.083 184.412Z" fill="url(#paint5_linear_24_290)"/>
<g opacity="0.2">
<path opacity="0.2" d="M167.775 225.699C167.617 225.504 167.648 225.219 167.843 225.062L168.846 224.255C169.041 224.098 169.327 224.128 169.484 224.323C169.642 224.518 169.611 224.804 169.416 224.961L168.414 225.768C168.218 225.926 167.932 225.895 167.775 225.699Z" fill="#FF5A09"/>
<path opacity="0.2" d="M169.738 228.132C169.58 227.937 169.611 227.651 169.806 227.494L170.809 226.687C171.004 226.53 171.29 226.561 171.447 226.756C171.605 226.951 171.574 227.236 171.379 227.393L170.377 228.2C170.181 228.358 169.895 228.327 169.738 228.132Z" fill="#FF5A09"/>
<path opacity="0.2" d="M171.702 230.564C171.545 230.369 171.575 230.083 171.771 229.926L172.773 229.119C172.968 228.962 173.254 228.992 173.412 229.187C173.569 229.382 173.539 229.668 173.343 229.825L172.341 230.632C172.146 230.789 171.86 230.759 171.702 230.564Z" fill="#FF5A09"/>
<path opacity="0.2" d="M173.665 232.996C173.508 232.801 173.538 232.516 173.734 232.358L174.736 231.552C174.931 231.394 175.217 231.425 175.375 231.62C175.532 231.815 175.502 232.101 175.306 232.258L174.304 233.065C174.109 233.222 173.823 233.191 173.665 232.996Z" fill="#FF5A09"/>
<path opacity="0.2" d="M175.629 235.428C175.471 235.233 175.502 234.947 175.697 234.79L176.699 233.983C176.895 233.826 177.181 233.857 177.338 234.052C177.496 234.247 177.465 234.532 177.27 234.69L176.267 235.496C176.072 235.654 175.786 235.623 175.629 235.428Z" fill="#FF5A09"/>
<path opacity="0.2" d="M177.593 237.86C177.435 237.665 177.466 237.379 177.661 237.222L178.664 236.415C178.859 236.258 179.145 236.288 179.302 236.483C179.46 236.678 179.429 236.964 179.234 237.121L178.231 237.928C178.036 238.085 177.75 238.055 177.593 237.86Z" fill="#FF5A09"/>
<path opacity="0.2" d="M179.556 240.292C179.398 240.097 179.429 239.811 179.624 239.654L180.627 238.847C180.822 238.69 181.108 238.721 181.266 238.916C181.423 239.111 181.392 239.397 181.197 239.554L180.195 240.361C179.999 240.518 179.713 240.487 179.556 240.292Z" fill="#FF5A09"/>
<path opacity="0.2" d="M181.519 242.724C181.362 242.529 181.392 242.243 181.588 242.086L182.59 241.279C182.785 241.122 183.071 241.152 183.229 241.347C183.386 241.543 183.356 241.828 183.16 241.985L182.158 242.792C181.963 242.949 181.677 242.919 181.519 242.724Z" fill="#FF5A09"/>
<path opacity="0.2" d="M183.483 245.155C183.326 244.96 183.356 244.675 183.552 244.518L184.554 243.711C184.749 243.554 185.035 243.584 185.193 243.779C185.35 243.974 185.32 244.26 185.124 244.417L184.122 245.224C183.927 245.381 183.641 245.35 183.483 245.155Z" fill="#FF5A09"/>
<path opacity="0.2" d="M185.447 247.588C185.289 247.393 185.32 247.107 185.515 246.95L186.517 246.143C186.713 245.986 186.999 246.017 187.156 246.212C187.314 246.407 187.283 246.692 187.088 246.849L186.085 247.656C185.89 247.814 185.604 247.783 185.447 247.588Z" fill="#FF5A09"/>
<path opacity="0.2" d="M187.41 250.02C187.252 249.825 187.283 249.539 187.478 249.382L188.481 248.575C188.676 248.418 188.962 248.448 189.119 248.643C189.277 248.838 189.246 249.124 189.051 249.281L188.049 250.088C187.853 250.245 187.567 250.215 187.41 250.02Z" fill="#FF5A09"/>
<path opacity="0.2" d="M189.374 252.451C189.217 252.256 189.247 251.971 189.442 251.813L190.445 251.007C190.64 250.849 190.926 250.88 191.084 251.075C191.241 251.27 191.21 251.556 191.015 251.713L190.013 252.52C189.818 252.677 189.531 252.646 189.374 252.451Z" fill="#FF5A09"/>
<path opacity="0.2" d="M191.337 254.884C191.18 254.689 191.21 254.403 191.406 254.246L192.408 253.439C192.603 253.282 192.889 253.313 193.047 253.508C193.204 253.703 193.174 253.988 192.978 254.145L191.976 254.952C191.781 255.11 191.495 255.079 191.337 254.884Z" fill="#FF5A09"/>
</g>
<g opacity="0.3">
<path opacity="0.4" d="M195.481 204.139C195.352 203.98 195.12 203.955 194.96 204.083C194.8 204.212 194.775 204.444 194.904 204.604C195.033 204.763 195.266 204.788 195.425 204.66C195.585 204.531 195.61 204.298 195.481 204.139ZM193.605 205.648C193.477 205.489 193.244 205.464 193.084 205.592C192.924 205.721 192.899 205.953 193.028 206.113C193.157 206.273 193.39 206.298 193.55 206.169C193.709 206.04 193.734 205.808 193.605 205.648ZM191.73 207.158C191.602 206.999 191.369 206.974 191.209 207.102C191.049 207.231 191.024 207.464 191.153 207.623C191.282 207.783 191.515 207.808 191.675 207.679C191.833 207.551 191.858 207.318 191.73 207.158ZM189.854 208.668C189.726 208.509 189.493 208.484 189.333 208.612C189.173 208.741 189.148 208.974 189.277 209.133C189.406 209.293 189.639 209.318 189.799 209.189C189.958 209.06 189.982 208.828 189.854 208.668ZM187.979 210.178C187.85 210.019 187.617 209.994 187.457 210.122C187.297 210.251 187.272 210.484 187.401 210.643C187.53 210.803 187.763 210.828 187.923 210.699C188.082 210.57 188.107 210.338 187.979 210.178ZM186.103 211.688C185.974 211.529 185.741 211.504 185.581 211.632C185.422 211.761 185.397 211.994 185.525 212.153C185.654 212.313 185.887 212.338 186.047 212.209C186.207 212.08 186.232 211.847 186.103 211.688ZM184.227 213.198C184.098 213.039 183.865 213.014 183.705 213.142C183.546 213.271 183.521 213.504 183.649 213.663C183.778 213.823 184.011 213.848 184.171 213.719C184.331 213.59 184.356 213.357 184.227 213.198ZM182.351 214.708C182.222 214.548 181.989 214.523 181.83 214.652C181.67 214.78 181.645 215.013 181.774 215.172C181.902 215.332 182.135 215.357 182.295 215.228C182.455 215.1 182.48 214.867 182.351 214.708ZM180.476 216.218C180.347 216.058 180.114 216.033 179.954 216.162C179.795 216.29 179.77 216.523 179.899 216.682C180.027 216.842 180.26 216.867 180.42 216.738C180.58 216.61 180.604 216.377 180.476 216.218ZM178.6 217.728C178.471 217.568 178.238 217.543 178.079 217.672C177.919 217.8 177.894 218.033 178.023 218.192C178.152 218.352 178.384 218.377 178.544 218.248C178.703 218.12 178.728 217.887 178.6 217.728ZM176.724 219.238C176.595 219.078 176.362 219.053 176.203 219.182C176.043 219.31 176.018 219.543 176.147 219.702C176.276 219.862 176.509 219.887 176.668 219.758C176.828 219.63 176.853 219.397 176.724 219.238Z" fill="#FF5A09"/>
</g>
<g opacity="0.2">
<path opacity="0.2" d="M245.379 191.054C245.352 191.075 245.331 191.104 245.32 191.136C245.275 191.254 240.819 203.053 232.138 214.865L214.852 193.456C214.727 193.505 214.602 193.554 214.478 193.604L231.996 215.301L233.531 217.203C233.606 217.092 233.681 216.98 233.756 216.869L232.388 215.175C236.925 209.015 240.316 202.852 242.538 198.326L243.602 199.643C243.663 199.516 243.725 199.388 243.786 199.26L242.724 197.944C244.528 194.234 245.514 191.702 245.66 191.319L248.17 189.298C248.269 189.053 248.37 188.811 248.468 188.565L245.379 191.054Z" fill="#FF5A09"/>
<path opacity="0.2" d="M221.412 225.641C221.348 225.561 221.222 225.548 221.142 225.612L210.772 233.96C210.689 234.027 210.676 234.148 210.743 234.23L214.774 239.223C214.867 239.133 214.958 239.043 215.05 238.954L211.163 234.138L221.235 226.031L224.037 229.501C224.122 229.403 224.207 229.305 224.292 229.206L221.412 225.641Z" fill="#FF5A09"/>
<path opacity="0.2" d="M182.314 258.977L171.399 267.763L151.422 243.02L148.841 239.824C148.752 239.916 148.659 240.007 148.571 240.1L151.004 243.114C140.606 251.583 133.033 268.095 131.19 272.369L131.463 272.707C133.139 268.79 140.751 251.963 151.246 243.413L171.22 268.153L174.041 271.646C174.151 271.579 174.26 271.508 174.37 271.441L171.641 268.061L182.407 259.395L185.643 263.403C185.745 263.326 185.848 263.249 185.951 263.172L182.585 259.005C182.517 258.923 182.396 258.91 182.314 258.977Z" fill="#FF5A09"/>
</g>
<path opacity="0.2" d="M170.414 221.037L197.333 254.377C197.652 254.123 197.98 253.866 198.296 253.611L171.368 220.26C171.052 220.514 170.731 220.78 170.414 221.037Z" fill="#FF5A09"/>
<path opacity="0.2" d="M169.459 221.814L196.37 255.144C196.693 254.888 197.014 254.633 197.333 254.378L170.414 221.038C170.096 221.294 169.778 221.553 169.459 221.814Z" fill="#FFA36B"/>
<path opacity="0.3" d="M207.124 218.977C204.128 215.266 198.687 214.682 194.972 217.673C191.257 220.663 190.674 226.096 193.67 229.807C196.666 233.518 202.107 234.102 205.822 231.111C209.538 228.12 210.121 222.688 207.124 218.977ZM204.473 229.252C201.795 231.408 197.874 230.987 195.714 228.313C193.555 225.638 193.975 221.723 196.653 219.567C199.33 217.412 203.251 217.833 205.411 220.507C207.571 223.182 207.151 227.097 204.473 229.252Z" fill="#172879"/>
<path d="M199.853 232.669C204.507 233.169 208.684 229.807 209.183 225.159C209.681 220.512 206.313 216.34 201.659 215.841C197.005 215.341 192.828 218.703 192.329 223.351C191.83 227.998 195.199 232.17 199.853 232.669Z" fill="url(#paint6_linear_24_290)"/>
<path d="M200.092 230.438C203.512 230.805 206.582 228.334 206.948 224.919C207.315 221.504 204.84 218.438 201.419 218.071C197.999 217.704 194.93 220.175 194.563 223.59C194.197 227.005 196.672 230.071 200.092 230.438Z" fill="white"/>
<path d="M205.78 222.338C205.584 221.826 205.307 221.334 204.944 220.884C204.931 220.868 204.916 220.854 204.903 220.838C202.404 220.576 199.905 220.316 197.406 220.052C197.397 220.058 197.388 220.064 197.378 220.072C196.928 220.434 196.553 220.856 196.253 221.315L205.78 222.338Z" fill="url(#paint7_linear_24_290)"/>
<path d="M205.228 227.239C205.685 226.554 205.974 225.783 206.083 224.987C202.52 224.605 198.957 224.223 195.395 223.84C195.333 224.641 195.451 225.456 195.753 226.222C198.911 226.561 202.07 226.899 205.228 227.239Z" fill="url(#paint8_linear_24_290)"/>
<path d="M203.136 229.069C203.454 228.911 203.761 228.722 204.053 228.496L196.634 227.699C196.871 227.981 197.131 228.233 197.408 228.454C199.318 228.659 201.226 228.864 203.136 229.069Z" fill="url(#paint9_linear_24_290)"/>
<path d="M206.713 219.803C206.567 219.92 206.355 219.897 206.237 219.752C206.12 219.606 206.142 219.394 206.288 219.277C206.434 219.159 206.647 219.182 206.764 219.328C206.882 219.472 206.859 219.686 206.713 219.803Z" fill="#3B0364"/>
<path d="M206.713 219.803C206.567 219.92 206.355 219.897 206.237 219.752C206.12 219.606 206.142 219.394 206.288 219.277C206.434 219.159 206.647 219.182 206.764 219.328C206.882 219.472 206.859 219.686 206.713 219.803ZM203.491 216.987C203.317 216.92 203.12 217.006 203.054 217.181C202.986 217.355 203.073 217.551 203.248 217.618C203.422 217.686 203.618 217.599 203.685 217.425C203.752 217.25 203.665 217.054 203.491 216.987ZM199.485 216.594C199.3 216.623 199.174 216.796 199.203 216.98C199.232 217.164 199.405 217.29 199.59 217.262C199.775 217.233 199.901 217.06 199.872 216.875C199.843 216.691 199.669 216.565 199.485 216.594ZM195.82 218.254C195.674 218.371 195.651 218.583 195.769 218.729C195.886 218.874 196.099 218.897 196.244 218.78C196.39 218.663 196.413 218.45 196.295 218.305C196.178 218.159 195.964 218.136 195.82 218.254ZM193.477 221.521C193.409 221.695 193.496 221.891 193.671 221.959C193.845 222.026 194.041 221.94 194.109 221.765C194.176 221.591 194.09 221.395 193.915 221.328C193.74 221.26 193.544 221.347 193.477 221.521ZM193.084 225.521C193.113 225.706 193.286 225.832 193.471 225.803C193.656 225.774 193.782 225.601 193.753 225.418C193.725 225.233 193.551 225.107 193.367 225.136C193.181 225.164 193.055 225.337 193.084 225.521ZM194.747 229.182C194.865 229.328 195.078 229.35 195.223 229.233C195.369 229.116 195.392 228.903 195.274 228.758C195.157 228.612 194.944 228.59 194.798 228.707C194.653 228.824 194.63 229.036 194.747 229.182ZM198.02 231.522C198.195 231.59 198.391 231.503 198.459 231.329C198.526 231.155 198.439 230.959 198.265 230.892C198.09 230.824 197.894 230.911 197.828 231.085C197.759 231.259 197.847 231.455 198.02 231.522ZM202.026 231.916C202.211 231.887 202.337 231.714 202.309 231.53C202.28 231.345 202.106 231.219 201.922 231.248C201.737 231.277 201.611 231.45 201.64 231.634C201.669 231.818 201.842 231.945 202.026 231.916ZM205.692 230.256C205.838 230.139 205.861 229.926 205.743 229.781C205.626 229.635 205.413 229.612 205.267 229.73C205.121 229.847 205.099 230.059 205.216 230.205C205.334 230.35 205.547 230.373 205.692 230.256ZM208.035 226.988C208.102 226.813 208.016 226.617 207.841 226.551C207.667 226.484 207.471 226.57 207.404 226.744C207.336 226.919 207.423 227.115 207.598 227.181C207.771 227.248 207.968 227.162 208.035 226.988ZM208.427 222.988C208.399 222.803 208.225 222.677 208.04 222.706C207.855 222.734 207.729 222.908 207.758 223.092C207.787 223.277 207.96 223.403 208.145 223.374C208.33 223.345 208.456 223.172 208.427 222.988Z" fill="#E2EDF7"/>
<path d="M131.381 299.443L112.314 275.827L129.905 270.778L140.055 283.348L131.381 299.443Z" fill="url(#paint10_linear_24_290)"/>
<g opacity="0.3">
<path opacity="0.3" d="M133.503 295.506L134.96 292.801L119.573 273.743L116.617 274.592L133.503 295.506Z" fill="#FF5A09"/>
<path opacity="0.3" d="M126.857 271.653L123.901 272.502L137.094 288.841L138.552 286.137L126.857 271.653Z" fill="#FF5A09"/>
</g>
<path d="M138.044 288.819L139.501 286.114L127.081 270.732L124.126 271.58L138.044 288.819Z" fill="url(#paint11_linear_24_290)"/>
<path d="M134.539 295.589L135.996 292.885L119.711 272.716L116.756 273.564L134.539 295.589Z" fill="url(#paint12_linear_24_290)"/>
<path d="M435.733 516.367C440.271 510.88 443.329 504.22 443.674 497.157C444.162 487.156 438.38 476.673 428.951 473.263C416.938 468.919 404.116 476.432 393.88 484.063C383.644 491.693 372.049 500.26 359.45 498.144C351.886 496.874 345.523 491.877 339.916 486.65C334.308 481.423 328.94 475.689 322.054 472.313C312.413 467.587 302.654 471.391 293.137 474.306C271.349 480.981 229.437 502.745 212.788 475.403C206.765 465.513 206.293 451.558 196.493 445.373C187.801 439.887 176.504 443.598 166.822 447.047C157.14 450.497 145.2 453.164 137.513 446.345C128.413 438.273 131.849 422.759 125.027 412.694C120.63 406.209 112.743 403.123 105.19 401.013C97.6377 398.903 89.6511 397.266 83.4464 392.476C69.6252 381.804 79.1387 357.712 60.1243 350.537C51.4235 347.254 40.2827 351.245 33.1859 345.239C23.8957 337.378 31.0953 321.741 26.694 310.405C20.734 295.054 -3.24904 293.959 -10.0796 278.974C-16.6095 264.647 -3.27608 246.579 -10.7072 232.697C-16.3964 222.068 -32.0377 218.941 -35.9507 207.541C-40.1108 195.421 -28.0861 182.174 -32.0789 169.998C-37.9971 151.953 -67.7888 155.642 -72.48 136.628C-74.0099 130.429 -72.3549 123.859 -69.7687 118.021C-67.1825 112.183 -63.6775 106.777 -61.221 100.883C-55.9491 88.2315 -55.8663 73.5102 -60.9955 60.7973C-62.3596 57.4184 -64.0965 54.198 -66.1342 51.1788L-117.617 45.6539L-161.257 452.302L435.733 516.369L435.733 516.367Z" fill="url(#paint13_linear_24_290)"/>
<g opacity="0.4">
<path opacity="0.4" d="M155.923 280.446C155.72 280.424 155.537 280.571 155.515 280.774C155.493 280.977 155.64 281.16 155.844 281.182C156.048 281.204 156.231 281.057 156.253 280.854C156.274 280.651 156.128 280.468 155.923 280.446ZM155.667 282.838C155.463 282.816 155.28 282.963 155.258 283.166C155.237 283.369 155.383 283.552 155.588 283.574C155.791 283.596 155.974 283.449 155.996 283.246C156.018 283.043 155.871 282.86 155.667 282.838ZM155.41 285.231C155.206 285.209 155.023 285.356 155.002 285.559C154.98 285.762 155.127 285.945 155.331 285.967C155.534 285.989 155.717 285.841 155.739 285.638C155.761 285.435 155.614 285.253 155.41 285.231ZM155.153 287.623C154.95 287.601 154.767 287.748 154.745 287.951C154.723 288.154 154.87 288.337 155.074 288.359C155.277 288.381 155.461 288.233 155.482 288.03C155.504 287.827 155.357 287.645 155.153 287.623ZM154.896 290.015C154.693 289.994 154.51 290.141 154.488 290.344C154.466 290.547 154.613 290.73 154.817 290.752C155.021 290.774 155.204 290.626 155.226 290.423C155.247 290.22 155.101 290.037 154.896 290.015ZM154.64 292.407C154.436 292.386 154.253 292.533 154.231 292.736C154.21 292.939 154.356 293.122 154.561 293.144C154.764 293.166 154.947 293.019 154.969 292.815C154.991 292.611 154.844 292.429 154.64 292.407ZM154.383 294.8C154.179 294.778 153.996 294.926 153.975 295.129C153.953 295.332 154.1 295.515 154.304 295.537C154.507 295.558 154.69 295.412 154.712 295.208C154.734 295.004 154.587 294.822 154.383 294.8ZM154.126 297.192C153.923 297.17 153.74 297.317 153.718 297.521C153.696 297.724 153.843 297.907 154.047 297.929C154.25 297.95 154.433 297.804 154.455 297.6C154.477 297.397 154.33 297.214 154.126 297.192ZM153.869 299.585C153.666 299.563 153.483 299.71 153.461 299.914C153.439 300.118 153.586 300.299 153.79 300.321C153.994 300.343 154.177 300.196 154.199 299.993C154.22 299.79 154.074 299.607 153.869 299.585ZM153.613 301.977C153.409 301.955 153.226 302.102 153.204 302.306C153.183 302.51 153.329 302.691 153.534 302.713C153.737 302.735 153.92 302.588 153.942 302.385C153.964 302.182 153.817 301.999 153.613 301.977ZM153.356 304.37C153.153 304.348 152.969 304.495 152.948 304.698C152.926 304.902 153.073 305.084 153.277 305.106C153.48 305.128 153.663 304.981 153.685 304.778C153.707 304.575 153.56 304.392 153.356 304.37ZM153.099 306.762C152.896 306.74 152.713 306.887 152.691 307.09C152.669 307.293 152.816 307.476 153.02 307.498C153.224 307.52 153.407 307.373 153.428 307.17C153.45 306.967 153.303 306.784 153.099 306.762ZM152.842 309.155C152.639 309.133 152.456 309.28 152.434 309.483C152.412 309.686 152.559 309.869 152.763 309.891C152.967 309.913 153.15 309.765 153.172 309.562C153.193 309.359 153.047 309.177 152.842 309.155ZM152.586 311.547C152.382 311.525 152.199 311.672 152.177 311.875C152.156 312.078 152.302 312.261 152.507 312.283C152.71 312.305 152.893 312.157 152.915 311.954C152.937 311.751 152.79 311.569 152.586 311.547ZM152.329 313.939C152.126 313.918 151.942 314.065 151.921 314.268C151.899 314.471 152.046 314.654 152.25 314.676C152.453 314.698 152.636 314.55 152.658 314.347C152.68 314.143 152.533 313.961 152.329 313.939Z" fill="#CD2D2F"/>
</g>
<g opacity="0.4">
<path opacity="0.4" d="M135.281 255.545C135.303 255.342 135.155 255.159 134.952 255.138C134.748 255.116 134.565 255.262 134.543 255.466C134.522 255.669 134.669 255.852 134.873 255.874C135.076 255.896 135.259 255.748 135.281 255.545ZM132.885 255.288C132.907 255.085 132.76 254.902 132.556 254.881C132.353 254.859 132.17 255.005 132.148 255.209C132.126 255.412 132.274 255.595 132.477 255.617C132.681 255.639 132.864 255.491 132.885 255.288ZM130.489 255.031C130.511 254.828 130.363 254.645 130.16 254.623C129.956 254.602 129.773 254.748 129.752 254.952C129.73 255.155 129.877 255.338 130.081 255.36C130.285 255.382 130.467 255.234 130.489 255.031ZM128.094 254.774C128.115 254.571 127.968 254.388 127.764 254.366C127.561 254.344 127.378 254.491 127.356 254.695C127.334 254.898 127.481 255.081 127.685 255.103C127.889 255.125 128.072 254.977 128.094 254.774ZM125.697 254.517C125.719 254.314 125.572 254.131 125.368 254.109C125.165 254.087 124.982 254.234 124.96 254.438C124.938 254.641 125.085 254.824 125.289 254.846C125.493 254.867 125.675 254.72 125.697 254.517ZM123.302 254.26C123.323 254.057 123.177 253.874 122.972 253.852C122.768 253.83 122.586 253.977 122.564 254.181C122.542 254.384 122.69 254.567 122.893 254.588C123.097 254.61 123.28 254.463 123.302 254.26ZM120.905 254.003C120.927 253.8 120.78 253.617 120.576 253.595C120.372 253.573 120.19 253.72 120.168 253.923C120.146 254.127 120.294 254.309 120.497 254.331C120.7 254.353 120.883 254.206 120.905 254.003ZM118.51 253.746C118.531 253.542 118.384 253.36 118.18 253.338C117.977 253.316 117.794 253.463 117.772 253.666C117.75 253.869 117.898 254.052 118.101 254.074C118.305 254.096 118.488 253.949 118.51 253.746ZM116.113 253.488C116.135 253.285 115.987 253.102 115.784 253.081C115.581 253.059 115.398 253.205 115.376 253.409C115.354 253.612 115.502 253.795 115.705 253.817C115.908 253.839 116.092 253.691 116.113 253.488ZM113.718 253.231C113.74 253.028 113.592 252.845 113.389 252.824C113.185 252.802 113.002 252.948 112.98 253.152C112.959 253.355 113.106 253.538 113.31 253.56C113.513 253.582 113.696 253.434 113.718 253.231ZM111.321 252.974C111.343 252.771 111.196 252.588 110.992 252.566C110.789 252.545 110.606 252.691 110.584 252.895C110.562 253.098 110.71 253.281 110.913 253.303C111.117 253.325 111.3 253.177 111.321 252.974ZM108.926 252.717C108.948 252.514 108.8 252.331 108.597 252.309C108.393 252.287 108.21 252.434 108.188 252.638C108.167 252.841 108.314 253.024 108.518 253.046C108.721 253.068 108.904 252.92 108.926 252.717ZM106.53 252.46C106.551 252.257 106.404 252.074 106.2 252.052C105.997 252.03 105.814 252.177 105.792 252.381C105.77 252.584 105.918 252.767 106.121 252.789C106.325 252.81 106.508 252.663 106.53 252.46ZM104.134 252.203C104.156 252 104.008 251.817 103.805 251.795C103.601 251.773 103.418 251.92 103.397 252.124C103.375 252.327 103.522 252.51 103.726 252.531C103.929 252.553 104.112 252.406 104.134 252.203ZM101.738 251.946C101.759 251.743 101.612 251.56 101.408 251.538C101.205 251.516 101.022 251.663 101 251.866C100.978 252.07 101.126 252.252 101.329 252.274C101.533 252.296 101.716 252.149 101.738 251.946Z" fill="#CD2D2F"/>
</g>
<defs>
<linearGradient id="paint0_linear_24_290" x1="260.419" y1="176.092" x2="-9.40129" y2="393.943" gradientUnits="userSpaceOnUse">
<stop offset="0.0606" stop-color="#4B188D" stop-opacity="0.1"/>
<stop offset="1" stop-color="#340F70"/>
</linearGradient>
<linearGradient id="paint1_linear_24_290" x1="138.295" y1="301.308" x2="30.6171" y2="383.923" gradientUnits="userSpaceOnUse">
<stop stop-color="#903CFC"/>
<stop offset="1" stop-color="#5113B4"/>
</linearGradient>
<linearGradient id="paint2_linear_24_290" x1="88.547" y1="232.639" x2="176.211" y2="284.578" gradientUnits="userSpaceOnUse">
<stop stop-color="#FFB018"/>
<stop offset="0.638266" stop-color="#FF2900"/>
</linearGradient>
<linearGradient id="paint3_linear_24_290" x1="152.262" y1="265.698" x2="192.356" y2="272.464" gradientUnits="userSpaceOnUse">
<stop stop-color="#FFB018"/>
<stop offset="0.638266" stop-color="#FF2900"/>
</linearGradient>
<linearGradient id="paint4_linear_24_290" x1="179.068" y1="214.062" x2="205.946" y2="247.453" gradientUnits="userSpaceOnUse">
<stop stop-color="#E3EEF8"/>
<stop offset="0.0564" stop-color="#CBDDF4"/>
<stop offset="0.1349" stop-color="#B1CBF0"/>
<stop offset="0.2154" stop-color="#9EBEED"/>
<stop offset="0.2982" stop-color="#93B6EC"/>
<stop offset="0.3872" stop-color="#8FB3EB"/>
<stop offset="0.5018" stop-color="#A4C2EE"/>
<stop offset="0.7373" stop-color="#DAE7F6"/>
<stop offset="0.7788" stop-color="#E4EEF7"/>
<stop offset="1" stop-color="#C7D9F2"/>
</linearGradient>
<linearGradient id="paint5_linear_24_290" x1="119.65" y1="187.599" x2="306.109" y2="239.468" gradientUnits="userSpaceOnUse">
<stop stop-color="#FFB018"/>
<stop offset="0.638266" stop-color="#FF2900"/>
</linearGradient>
<linearGradient id="paint6_linear_24_290" x1="190.037" y1="217.235" x2="218.698" y2="225.208" gradientUnits="userSpaceOnUse">
<stop stop-color="#FFB018"/>
<stop offset="0.638266" stop-color="#FF2900"/>
</linearGradient>
<linearGradient id="paint7_linear_24_290" x1="194.731" y1="219.965" x2="201.229" y2="229.164" gradientUnits="userSpaceOnUse">
<stop stop-color="#FFB018"/>
<stop offset="0.638266" stop-color="#FF2900"/>
</linearGradient>
<linearGradient id="paint8_linear_24_290" x1="193.508" y1="224.001" x2="204.524" y2="234.464" gradientUnits="userSpaceOnUse">
<stop stop-color="#FFB018"/>
<stop offset="0.638266" stop-color="#FF2900"/>
</linearGradient>
<linearGradient id="paint9_linear_24_290" x1="195.34" y1="227.665" x2="197.729" y2="233.504" gradientUnits="userSpaceOnUse">
<stop stop-color="#FFB018"/>
<stop offset="0.638266" stop-color="#FF2900"/>
</linearGradient>
<linearGradient id="paint10_linear_24_290" x1="107.699" y1="272.818" x2="155.694" y2="286.169" gradientUnits="userSpaceOnUse">
<stop stop-color="#FFB018"/>
<stop offset="0.638266" stop-color="#FF2900"/>
</linearGradient>
<linearGradient id="paint11_linear_24_290" x1="121.075" y1="272.711" x2="149.547" y2="280.632" gradientUnits="userSpaceOnUse">
<stop stop-color="#FFB018"/>
<stop offset="0.638266" stop-color="#FF2900"/>
</linearGradient>
<linearGradient id="paint12_linear_24_290" x1="112.885" y1="275.286" x2="148.716" y2="285.253" gradientUnits="userSpaceOnUse">
<stop stop-color="#FFB018"/>
<stop offset="0.638266" stop-color="#FF2900"/>
</linearGradient>
<linearGradient id="paint13_linear_24_290" x1="133.177" y1="300.761" x2="-112.592" y2="453.838" gradientUnits="userSpaceOnUse">
<stop stop-color="#8F3BFC"/>
<stop offset="1" stop-color="#5113B4"/>
</linearGradient>
</defs>
</svg>
