<svg width="760" height="560" viewBox="0 0 760 560" fill="none" xmlns="http://www.w3.org/2000/svg">
<path d="M610.999 0C610.999 0 610.999 75.9341 531.865 85.6266C452.731 95.3191 391.359 50.084 323.524 103.401C255.694 156.717 329.982 395.823 257.31 431.366C184.633 466.908 13.4387 420.057 5.36525 336.046C-2.71345 252.031 -98 492.753 -98 492.753C-98 492.753 131.335 618.771 278.304 525.063C425.273 431.355 352.597 303.726 376.822 239.106C401.048 174.48 464.035 142.17 581.932 153.479C699.828 164.788 759.584 22.6175 759.584 22.6175L610.999 0ZM70.2054 514.481C-65.1642 466.429 47.2798 444.591 47.2798 444.591C47.2798 444.591 117.146 477.354 173.918 476.258C230.685 475.169 301.646 420.562 309.288 448.955C316.924 477.348 205.575 562.533 70.2054 514.481ZM518.892 120.243C486.14 145.361 409.769 135.668 378.633 169.453C374.596 173.833 371.575 178.998 368.823 184.241C357.702 205.432 352.681 229.261 344.481 251.599C341.013 261.044 332.771 285.994 320.413 270.91C316.282 265.872 313.393 258.917 311.435 251.036C306.309 230.451 307.514 203.532 309.461 187.785C312.919 159.797 323.75 129.646 347.507 112.598C397.711 76.5606 551.638 95.1243 518.892 120.243ZM562.753 135.116C543.849 135.116 528.528 130.593 528.528 125.018C528.528 119.442 543.854 114.92 562.753 114.92C581.658 114.92 596.979 119.442 596.979 125.018C596.979 130.593 581.658 135.116 562.753 135.116Z" fill="url(#paint0_linear_19_19)"/>
<defs>
<linearGradient id="paint0_linear_19_19" x1="-98" y1="-292.5" x2="436.5" y2="489" gradientUnits="userSpaceOnUse">
<stop stop-color="#58008A"/>
<stop offset="1" stop-color="#58008A" stop-opacity="0"/>
</linearGradient>
</defs>
</svg>
