<svg width="626" height="560" viewBox="0 0 626 560" fill="none" xmlns="http://www.w3.org/2000/svg">
<path d="M148.585 0C148.585 0 148.585 75.9341 227.719 85.6266C306.854 95.3191 368.226 50.084 436.06 103.401C503.89 156.717 429.603 395.823 502.274 431.366C574.951 466.908 746.146 420.057 754.219 336.046C762.298 252.031 857.584 492.753 857.584 492.753C857.584 492.753 628.249 618.771 481.28 525.063C334.311 431.355 406.987 303.726 382.762 239.106C358.536 174.48 295.549 142.17 177.652 153.479C59.756 164.788 0 22.6175 0 22.6175L148.585 0ZM689.379 514.481C824.748 466.429 712.304 444.591 712.304 444.591C712.304 444.591 642.438 477.354 585.666 476.258C528.9 475.169 457.939 420.562 450.297 448.955C442.66 477.348 554.009 562.533 689.379 514.481ZM240.693 120.243C273.444 145.361 349.816 135.668 380.951 169.453C384.988 173.833 388.009 178.998 390.762 184.241C401.882 205.432 406.903 229.261 415.103 251.599C418.571 261.044 426.813 285.994 439.171 270.91C443.302 265.872 446.192 258.917 448.149 251.036C453.276 230.451 452.07 203.532 450.123 187.785C446.665 159.797 435.834 129.646 412.077 112.598C361.873 76.5606 207.946 95.1243 240.693 120.243ZM196.831 135.116C215.735 135.116 231.056 130.593 231.056 125.018C231.056 119.442 215.73 114.92 196.831 114.92C177.926 114.92 162.606 119.442 162.606 125.018C162.606 130.593 177.926 135.116 196.831 135.116Z" fill="url(#paint0_linear_20_35)"/>
<defs>
<linearGradient id="paint0_linear_20_35" x1="857.584" y1="-292.5" x2="323.084" y2="489" gradientUnits="userSpaceOnUse">
<stop stop-color="#58008A"/>
<stop offset="1" stop-color="#58008A" stop-opacity="0"/>
</linearGradient>
</defs>
</svg>
